<svg width="30" height="30" viewBox="0 0 30 30" fill="none" xmlns="http://www.w3.org/2000/svg">
<path d="M1.0331 1.03302C-0.34435 2.41039 -0.344349 4.64354 1.0331 6.0209L10.0118 14.9991L1.03309 23.9773C-0.344362 25.3547 -0.344362 27.5878 1.03309 28.9652C2.41053 30.3425 4.64382 30.3425 6.02127 28.9652L15 19.987L23.9787 28.9651C25.3562 30.3425 27.5895 30.3425 28.9669 28.9651C30.3444 27.5878 30.3444 25.3546 28.9669 23.9773L19.9882 14.9991L28.9669 6.02092C30.3444 4.64355 30.3444 2.4104 28.9669 1.03304C27.5895 -0.344325 25.3562 -0.344325 23.9787 1.03304L15 10.0112L6.02128 1.03302C4.64383 -0.344341 2.41055 -0.344341 1.0331 1.03302Z" fill="#FDB913"/>
</svg>
